#!OML:ASF Y:\EmotionMaleHayes\Project 1\Capture day 1\Session 1\Male1.ASF
:FULLY-SPECIFIED
:DEGREES
175
root -29.2332 17.1132 1.29503 27.0525 85.1896 27.7934
lowerback 6.98729 2.06859 -4.58996
upperback -1.72138 2.30675 -0.820323
thorax -5.87312 1.2872 1.44008
lowerneck -20.9491 2.77392 5.17628
upperneck 21.3182 2.74365 -1.7731
head 10.3926 1.51228 -1.07003
rclavicle -7.56003e-015 -1.19271e-014
rhumerus -37.3989 8.81461 -94.2162
rradius 29.7929
rwrist 4.77201
rhand -10.3918 -31.9245
rfingers 7.12502
rthumb 15.6063 -61.3149
lclavicle -7.56003e-015 -1.19271e-014
lhumerus -34.7598 -8.6371 92.1568
lradius 22.4825
lwrist -15.736
lhand -16.6372 -26.6902
lfingers 7.12502
lthumb 9.58535 3.07177
rfemur 8.56575 -3.69279 11.1557
rtibia 2.70102
rfoot -15.863 -3.25553
rtoes 0.132735
lfemur 12.3616 -0.314187 -17.5619
ltibia -2.19379
lfoot -12.1743 12.7888
ltoes -4.66542
176
root -29.229 17.1135 1.29505 24.5103 85.1819 25.2608
lowerback 6.96562 2.10747 -4.38577
upperback -1.71824 2.37964 -0.78694
thorax -5.85405 1.31593 1.35267
lowerneck -20.9644 2.78175 5.21213
upperneck 21.2983 2.73364 -1.7443
head 10.3881 1.51372 -1.06701
rclavicle -1.5117e-014 9.14409e-015
rhumerus -37.3758 8.71564 -94.1885
rradius 29.7139
rwrist 4.89843
rhand -10.4143 -31.6487
rfingers 7.12502
rthumb 15.5846 -61.0408
lclavicle -1.5117e-014 9.14409e-015
lhumerus -34.7831 -8.78985 92.2052
lradius 22.4878
lwrist -15.6435
lhand -16.6949 -26.5482
lfingers 7.12502
lthumb 9.52971 3.21634
rfemur 8.57475 -3.5876 11.4141
rtibia 2.64214
rfoot -15.8538 -3.28373
rtoes 0.835246
lfemur 12.4307 -0.241556 -17.3088
ltibia -2.20651
lfoot -12.3235 12.7549
ltoes -4.21823
177
root -29.2327 17.1117 1.29644 26.0181 85.2584 26.79
lowerback 7.03568 2.08904 -4.45198
upperback -1.71844 2.3442 -0.808957
thorax -5.89416 1.30107 1.36858
lowerneck -20.9601 2.76281 5.13978
upperneck 21.2559 2.71111 -1.67163
head 10.3688 1.5057 -1.03263
rclavicle 1.28527e-014 -1.5704e-014
rhumerus -37.3129 8.65804 -94.1238
rradius 29.6167
rwrist 4.99472
rhand -10.439 -31.4685
rfingers 7.12502
rthumb 15.5609 -60.8625
lclavicle 1.28527e-014 -1.5704e-014
lhumerus -34.7916 -8.86101 92.2678
lradius 22.5122
lwrist -15.6229
lhand -17.04 -26.3244
lfingers 7.12502
lthumb 9.19672 3.45508
rfemur 8.62406 -3.65407 11.3024
rtibia 2.54606
rfoot -15.797 -3.30973
rtoes 0.79807
lfemur 12.4027 -0.200297 -17.3656
ltibia -2.17307
lfoot -12.3513 12.6414
ltoes -3.91806
178
root -29.2345 17.1108 1.29914 27.7522 85.2644 28.5166
lowerback 7.03764 2.07657 -4.59663
upperback -1.72125 2.31365 -0.825054
thorax -5.90224 1.29119 1.43622
lowerneck -20.9545 2.75459 5.06645
upperneck 21.224 2.71122 -1.62595
head 10.3543 1.50482 -1.00433
rclavicle 1.1865e-014 -2.50469e-014
rhumerus -37.3044 8.66056 -94.0755
rradius 29.6189
rwrist 4.9117
rhand -10.4726 -31.3211
rfingers 7.12502
rthumb 15.5285 -60.7176
lclavicle 1.1865e-014 -2.50469e-014
lhumerus -34.8093 -8.85606 92.2943
lradius 22.5643
lwrist -15.6358
lhand -17.9585 -26.0754
lfingers 7.12502
lthumb 8.31036 3.7411
rfemur 8.64542 -3.61045 11.1652
rtibia 2.43847
rfoot -15.7584 -3.33521
rtoes 1.42486
lfemur 12.3766 0.0178822 -17.4165
ltibia -2.1844
lfoot -12.2101 12.4252
ltoes -4.17521
179
root -29.2352 17.1122 1.30141 28.2484 85.2495 28.9825
lowerback 7.02513 2.08517 -4.65421
upperback -1.73862 2.3198 -0.834024
thorax -5.91606 1.29668 1.4582
lowerneck -20.9324 2.74596 5.07951
upperneck 21.176 2.69846 -1.64025
head 10.3327 1.49766 -1.01377
rclavicle -1.56978e-014 8.94531e-015
rhumerus -37.3136 8.57869 -94.0356
rradius 29.6566
rwrist 4.86324
rhand -10.3436 -31.1928
rfingers 7.12502
rthumb 15.6528 -60.5796
lclavicle -1.56978e-014 8.94531e-015
lhumerus -34.8369 -8.9388 92.3193
lradius 22.5945
lwrist -15.605
lhand -17.3934 -26.4153
lfingers 7.12502
lthumb 8.85571 3.37885
rfemur 8.59262 -3.75808 11.0898
rtibia 2.62557
rfoot -15.8742 -3.33688
rtoes 0.935194
lfemur 12.361 0.11244 -17.4187
ltibia -2.22337
lfoot -12.2309 12.2843
ltoes -3.54652
180
root -29.2357 17.1124 1.30298 29.1014 85.2193 29.8476
lowerback 7.0556 2.07935 -4.72436
upperback -1.74158 2.30283 -0.856331
thorax -5.9377 1.29092 1.47505
lowerneck -20.9218 2.74494 5.10827
upperneck 21.1644 2.70343 -1.70109
head 10.328 1.49467 -1.03958
rclavicle 7.70291e-016 -9.14409e-015
rhumerus -37.2885 8.55024 -94.0304
rradius 29.6742
rwrist 4.9033
rhand -10.2132 -31.2474
rfingers 7.12502
rthumb 15.7783 -60.6243
lclavicle 7.70291e-016 -9.14409e-015
lhumerus -34.8544 -8.9315 92.3053
lradius 22.6294
lwrist -15.6098
lhand -18.2998 -26.8148
lfingers 7.12502
lthumb 7.98103 3.01452
rfemur 8.58428 -4.05754 10.8866
rtibia 2.72342
rfoot -15.878 -3.0379
rtoes 1.18355
lfemur 12.2532 0.348946 -17.4184
ltibia -1.99799
lfoot -12.2676 11.9944
ltoes -3.30781
181
root -29.2352 17.1129 1.30334 30.8821 85.16 31.6396
lowerback 7.04317 2.04049 -4.86782
upperback -1.7188 2.23791 -0.893265
thorax -5.90714 1.26277 1.5258
lowerneck -20.9621 2.77917 5.00898
upperneck 21.1761 2.75629 -1.60381
head 10.3386 1.52243 -0.980197
rclavicle -1.25079e-014 8.54774e-015
rhumerus -37.219 8.6651 -94.0499
rradius 29.6484
rwrist 4.86884
rhand -10.1491 -31.2915
rfingers 7.12502
rthumb 15.84 -60.6635
lclavicle -1.25079e-014 8.54774e-015
lhumerus -34.8127 -8.72803 92.2151
lradius 22.6459
lwrist -15.6931
lhand -17.1372 -26.6817
lfingers 7.12502
lthumb 9.10297 3.10184
rfemur 8.58532 -4.46574 10.5463
rtibia 2.80757
rfoot -15.7863 -2.60634
rtoes 0.724593
lfemur 12.478 -0.310962 -17.8585
ltibia -2.46305
lfoot -12.1982 12.689
ltoes -3.61868
182
root -29.2325 17.1145 1.30227 32.4229 85.08 33.1465
lowerback 6.96295 2.02842 -4.99829
upperback -1.72304 2.21357 -0.928998
thorax -5.86847 1.25448 1.567
lowerneck -20.9731 2.77707 4.86719
upperneck 21.2043 2.76125 -1.45175
head 10.3465 1.53224 -0.901698
rclavicle 3.38245e-015 -1.03368e-014
rhumerus -37.1813 8.65117 -94.0122
rradius 29.5661
rwrist 4.90411
rhand -10.1322 -31.1955
rfingers 7.12502
rthumb 15.8564 -60.5662
lclavicle 3.38245e-015 -1.03368e-014
lhumerus -34.8484 -8.61596 92.1949
lradius 22.6783
lwrist -15.7403
lhand -16.7908 -26.6384
lfingers 7.12502
lthumb 9.43724 3.1303
rfemur 8.54762 -4.68525 10.2911
rtibia 2.82364
rfoot -15.6643 -2.39986
rtoes 0.32144
lfemur 12.5471 -0.570661 -18.1517
ltibia -2.67211
lfoot -12.2155 12.99
ltoes -3.65333
183
root -29.2326 17.1147 1.30505 31.1 85.1412 31.7942
lowerback 6.9588 2.0228 -4.91958
upperback -1.74709 2.21566 -0.856242
thorax -5.8912 1.2545 1.59834
lowerneck -20.9836 2.77127 4.8322
upperneck 21.2378 2.76883 -1.46704
head 10.3603 1.53139 -0.900101
rclavicle -6.81459e-015 3.97569e-015
rhumerus -37.1902 8.646 -93.9595
rradius 29.5271
rwrist 4.96404
rhand -10.199 -31.1913
rfingers 7.12502
rthumb 15.792 -60.5672
lclavicle -6.81459e-015 3.97569e-015
lhumerus -34.9187 -8.59683 92.2539
lradius 22.7202
lwrist -15.6895
lhand -17.2339 -26.5989
lfingers 7.12502
lthumb 9.00966 3.18865
rfemur 8.49882 -4.60641 10.4941
rtibia 2.78774
rfoot -15.6349 -2.50629
rtoes 0.395529
lfemur 12.4294 -0.0410145 -17.7526
ltibia -2.48218
lfoot -12.1297 12.334
ltoes -2.88279
184
root -29.2368 17.1145 1.31031 30.014 85.2517 30.6912
lowerback 7.00738 1.98582 -4.86203
upperback -1.74825 2.17187 -0.776129
thorax -5.91795 1.23244 1.65379
lowerneck -21.0589 2.79988 4.86373
upperneck 21.2555 2.81626 -1.55629
head 10.3841 1.54398 -0.92931
rclavicle -4.78636e-015 -1.15295e-014
rhumerus -37.2024 8.80607 -93.9817
rradius 29.6017
rwrist 4.89228
rhand -10.1991 -31.3705
rfingers 7.12502
rthumb 15.7919 -60.7464
lclavicle -4.78636e-015 -1.15295e-014
lhumerus -34.9049 -8.61307 92.2911
lradius 22.7464
lwrist -15.647
lhand -18.5136 -26.7989
lfingers 7.12502
lthumb 7.77461 3.03813
rfemur 8.45427 -4.66288 10.6613
rtibia 2.8425
rfoot -15.6465 -2.52103
rtoes 0.0996145
lfemur 12.2861 0.522479 -17.3101
ltibia -2.25069
lfoot -12.0085 11.5783
ltoes -2.38121
185
root -29.2385 17.1155 1.314 30.4366 85.2396 31.1331
lowerback 7.15649 1.99845 -4.92857
upperback -1.79325 2.17225 -0.77237
thorax -6.05375 1.23816 1.68881
lowerneck -21.159 2.78057 4.82045
upperneck 21.347 2.79878 -1.55316
head 10.4344 1.53321 -0.922674
rclavicle -1.32937e-014 6.55989e-015
rhumerus -37.2904 8.85811 -94.0074
rradius 29.6825
rwrist 4.76294
rhand -10.1533 -31.4909
rfingers 7.12502
rthumb 15.836 -60.8633
lclavicle -1.32937e-014 6.55989e-015
lhumerus -34.9917 -8.66032 92.336
lradius 22.7959
lwrist -15.6601
lhand -17.5312 -26.7665
lfingers 7.12502
lthumb 8.72272 3.03328
rfemur 8.45206 -4.90278 10.5453
rtibia 2.93106
rfoot -15.6528 -2.24107
rtoes 0.42507
lfemur 12.3309 0.672566 -17.2882
ltibia -2.29283
lfoot -11.9057 11.4034
ltoes -3.24003
